<svg xmlns="http://www.w3.org/2000/svg" xmlns:xlink="http://www.w3.org/1999/xlink" width="500" zoomAndPan="magnify" viewBox="0 0 375 374.999991" height="500" preserveAspectRatio="xMidYMid meet" version="1.0"><defs><g/><clipPath id="54d0d1fce6"><path d="M 138 87 L 343.5 87 L 343.5 293 L 138 293 Z M 138 87 " clip-rule="nonzero"/></clipPath><clipPath id="31db555b0e"><path d="M 37.5 87 L 243 87 L 243 293 L 37.5 293 Z M 37.5 87 " clip-rule="nonzero"/></clipPath><clipPath id="4fbf60ce0e"><path d="M 52 2 L 60.878906 2 L 60.878906 12 L 52 12 Z M 52 2 " clip-rule="nonzero"/></clipPath><clipPath id="44938ba180"><rect x="0" width="61" y="0" height="15"/></clipPath><clipPath id="b343f15048"><rect x="0" width="41" y="0" height="16"/></clipPath></defs><g clip-path="url(#54d0d1fce6)"><path fill="#ec6433" d="M 343.210938 189.992188 C 343.210938 191.667969 343.167969 193.34375 343.085938 195.015625 C 343.003906 196.6875 342.882812 198.359375 342.71875 200.027344 C 342.554688 201.691406 342.347656 203.355469 342.101562 205.011719 C 341.855469 206.667969 341.570312 208.320312 341.246094 209.960938 C 340.917969 211.605469 340.550781 213.238281 340.144531 214.863281 C 339.738281 216.488281 339.292969 218.101562 338.804688 219.703125 C 338.320312 221.308594 337.796875 222.898438 337.230469 224.476562 C 336.667969 226.050781 336.066406 227.613281 335.425781 229.164062 C 334.785156 230.710938 334.109375 232.242188 333.394531 233.753906 C 332.675781 235.269531 331.925781 236.765625 331.136719 238.242188 C 330.347656 239.71875 329.523438 241.175781 328.664062 242.613281 C 327.800781 244.050781 326.90625 245.464844 325.976562 246.859375 C 325.046875 248.25 324.085938 249.621094 323.089844 250.964844 C 322.089844 252.308594 321.0625 253.628906 320 254.925781 C 318.9375 256.21875 317.847656 257.488281 316.722656 258.730469 C 315.597656 259.972656 314.445312 261.183594 313.261719 262.367188 C 312.078125 263.550781 310.867188 264.707031 309.628906 265.832031 C 308.386719 266.957031 307.121094 268.050781 305.828125 269.113281 C 304.535156 270.175781 303.214844 271.207031 301.871094 272.203125 C 300.527344 273.203125 299.160156 274.167969 297.769531 275.097656 C 296.378906 276.027344 294.964844 276.921875 293.527344 277.785156 C 292.09375 278.644531 290.636719 279.472656 289.164062 280.261719 C 287.6875 281.050781 286.191406 281.804688 284.679688 282.519531 C 283.167969 283.234375 281.636719 283.914062 280.09375 284.554688 C 278.546875 285.195312 276.984375 285.800781 275.410156 286.363281 C 273.835938 286.929688 272.246094 287.453125 270.644531 287.9375 C 269.042969 288.425781 267.433594 288.871094 265.808594 289.277344 C 264.183594 289.6875 262.554688 290.054688 260.910156 290.378906 C 259.269531 290.707031 257.621094 290.992188 255.96875 291.238281 C 254.3125 291.484375 252.652344 291.691406 250.988281 291.855469 C 249.320312 292.019531 247.652344 292.140625 245.980469 292.222656 C 244.3125 292.304688 242.636719 292.347656 240.964844 292.347656 C 239.292969 292.347656 237.621094 292.304688 235.949219 292.222656 C 234.277344 292.140625 232.609375 292.019531 230.945312 291.855469 C 229.277344 291.691406 227.617188 291.484375 225.964844 291.238281 C 224.308594 290.992188 222.660156 290.707031 221.019531 290.378906 C 219.378906 290.054688 217.746094 289.6875 216.121094 289.277344 C 214.5 288.871094 212.886719 288.425781 211.285156 287.9375 C 209.683594 287.453125 208.097656 286.929688 206.519531 286.363281 C 204.945312 285.800781 203.382812 285.195312 201.839844 284.554688 C 200.292969 283.914062 198.761719 283.234375 197.25 282.519531 C 195.738281 281.804688 194.242188 281.050781 192.769531 280.261719 C 191.292969 279.472656 189.835938 278.644531 188.402344 277.785156 C 186.964844 276.921875 185.554688 276.027344 184.160156 275.097656 C 182.769531 274.167969 181.402344 273.203125 180.058594 272.203125 C 178.714844 271.207031 177.394531 270.175781 176.101562 269.113281 C 174.808594 268.050781 173.542969 266.957031 172.300781 265.832031 C 171.0625 264.707031 169.851562 263.550781 168.667969 262.367188 C 167.484375 261.183594 166.332031 259.972656 165.207031 258.730469 C 164.082031 257.488281 162.992188 256.21875 161.929688 254.925781 C 160.867188 253.628906 159.839844 252.308594 158.84375 250.964844 C 157.84375 249.621094 156.882812 248.25 155.953125 246.859375 C 155.023438 245.464844 154.128906 244.050781 153.269531 242.613281 C 152.40625 241.175781 151.582031 239.71875 150.792969 238.242188 C 150.003906 236.765625 149.253906 235.269531 148.539062 233.753906 C 147.824219 232.242188 147.144531 230.710938 146.503906 229.164062 C 145.863281 227.613281 145.261719 226.050781 144.699219 224.476562 C 144.132812 222.898438 143.609375 221.308594 143.125 219.703125 C 142.636719 218.101562 142.191406 216.488281 141.785156 214.863281 C 141.378906 213.238281 141.011719 211.605469 140.6875 209.960938 C 140.359375 208.320312 140.074219 206.667969 139.828125 205.011719 C 139.582031 203.355469 139.378906 201.691406 139.214844 200.027344 C 139.050781 198.359375 138.925781 196.6875 138.84375 195.015625 C 138.761719 193.34375 138.722656 191.667969 138.722656 189.992188 C 138.722656 188.316406 138.761719 186.644531 138.84375 184.972656 C 138.925781 183.296875 139.050781 181.628906 139.214844 179.960938 C 139.378906 178.292969 139.582031 176.632812 139.828125 174.976562 C 140.074219 173.316406 140.359375 171.667969 140.6875 170.023438 C 141.011719 168.382812 141.378906 166.75 141.785156 165.125 C 142.191406 163.5 142.636719 161.882812 143.125 160.28125 C 143.609375 158.679688 144.132812 157.089844 144.699219 155.511719 C 145.261719 153.933594 145.863281 152.371094 146.503906 150.824219 C 147.144531 149.277344 147.824219 147.746094 148.539062 146.230469 C 149.253906 144.71875 150.003906 143.222656 150.792969 141.742188 C 151.582031 140.265625 152.40625 138.808594 153.269531 137.371094 C 154.128906 135.9375 155.023438 134.519531 155.953125 133.128906 C 156.882812 131.734375 157.84375 130.367188 158.84375 129.019531 C 159.839844 127.675781 160.867188 126.355469 161.929688 125.0625 C 162.992188 123.765625 164.082031 122.496094 165.207031 121.257812 C 166.332031 120.015625 167.484375 118.804688 168.667969 117.617188 C 169.851562 116.433594 171.0625 115.277344 172.300781 114.152344 C 173.542969 113.03125 174.808594 111.933594 176.101562 110.871094 C 177.394531 109.808594 178.714844 108.78125 180.058594 107.78125 C 181.402344 106.785156 182.769531 105.820312 184.160156 104.890625 C 185.554688 103.957031 186.964844 103.0625 188.402344 102.203125 C 189.835938 101.339844 191.292969 100.515625 192.769531 99.726562 C 194.242188 98.9375 195.738281 98.183594 197.25 97.464844 C 198.761719 96.75 200.292969 96.070312 201.839844 95.429688 C 203.382812 94.789062 204.945312 94.1875 206.519531 93.621094 C 208.097656 93.058594 209.683594 92.535156 211.285156 92.046875 C 212.886719 91.5625 214.5 91.113281 216.121094 90.707031 C 217.746094 90.300781 219.378906 89.933594 221.019531 89.605469 C 222.660156 89.28125 224.308594 88.992188 225.964844 88.746094 C 227.617188 88.5 229.277344 88.296875 230.945312 88.132812 C 232.609375 87.96875 234.277344 87.84375 235.949219 87.761719 C 237.621094 87.679688 239.292969 87.640625 240.964844 87.640625 C 242.636719 87.640625 244.3125 87.679688 245.980469 87.761719 C 247.652344 87.84375 249.320312 87.96875 250.988281 88.132812 C 252.652344 88.296875 254.3125 88.5 255.96875 88.746094 C 257.621094 88.992188 259.269531 89.28125 260.910156 89.605469 C 262.554688 89.933594 264.183594 90.300781 265.808594 90.707031 C 267.433594 91.113281 269.042969 91.5625 270.644531 92.046875 C 272.246094 92.535156 273.835938 93.058594 275.410156 93.621094 C 276.984375 94.1875 278.546875 94.789062 280.09375 95.429688 C 281.636719 96.070312 283.167969 96.75 284.679688 97.464844 C 286.191406 98.183594 287.6875 98.9375 289.164062 99.726562 C 290.636719 100.515625 292.09375 101.339844 293.527344 102.203125 C 294.964844 103.0625 296.378906 103.957031 297.769531 104.890625 C 299.160156 105.820312 300.527344 106.785156 301.871094 107.78125 C 303.214844 108.78125 304.535156 109.808594 305.828125 110.871094 C 307.121094 111.933594 308.386719 113.03125 309.628906 114.152344 C 310.867188 115.277344 312.078125 116.433594 313.261719 117.617188 C 314.445312 118.804688 315.597656 120.015625 316.722656 121.257812 C 317.847656 122.496094 318.9375 123.765625 320 125.0625 C 321.0625 126.355469 322.089844 127.675781 323.089844 129.019531 C 324.085938 130.367188 325.046875 131.734375 325.976562 133.128906 C 326.90625 134.519531 327.800781 135.9375 328.664062 137.371094 C 329.523438 138.808594 330.347656 140.265625 331.136719 141.742188 C 331.925781 143.222656 332.675781 144.71875 333.394531 146.230469 C 334.109375 147.746094 334.785156 149.277344 335.425781 150.824219 C 336.066406 152.371094 336.667969 153.933594 337.230469 155.511719 C 337.796875 157.089844 338.320312 158.679688 338.804688 160.28125 C 339.292969 161.882812 339.738281 163.5 340.144531 165.125 C 340.550781 166.75 340.917969 168.382812 341.246094 170.023438 C 341.570312 171.667969 341.855469 173.316406 342.101562 174.976562 C 342.347656 176.632812 342.554688 178.292969 342.71875 179.960938 C 342.882812 181.628906 343.003906 183.296875 343.085938 184.972656 C 343.167969 186.644531 343.210938 188.316406 343.210938 189.992188 Z M 343.210938 189.992188 " fill-opacity="1" fill-rule="nonzero"/></g><g clip-path="url(#31db555b0e)"><path fill="#ec6433" d="M 242.277344 189.992188 C 242.277344 191.667969 242.238281 193.34375 242.15625 195.015625 C 242.074219 196.6875 241.949219 198.359375 241.785156 200.027344 C 241.621094 201.691406 241.417969 203.355469 241.171875 205.011719 C 240.925781 206.667969 240.640625 208.320312 240.3125 209.960938 C 239.988281 211.605469 239.621094 213.238281 239.214844 214.863281 C 238.808594 216.488281 238.363281 218.101562 237.875 219.703125 C 237.390625 221.308594 236.867188 222.898438 236.300781 224.476562 C 235.738281 226.050781 235.136719 227.613281 234.496094 229.164062 C 233.855469 230.710938 233.175781 232.242188 232.460938 233.753906 C 231.746094 235.269531 230.996094 236.765625 230.207031 238.242188 C 229.417969 239.71875 228.59375 241.175781 227.730469 242.613281 C 226.871094 244.050781 225.976562 245.464844 225.046875 246.859375 C 224.117188 248.25 223.15625 249.621094 222.15625 250.964844 C 221.160156 252.308594 220.132812 253.628906 219.070312 254.925781 C 218.007812 256.21875 216.917969 257.488281 215.792969 258.730469 C 214.667969 259.972656 213.515625 261.183594 212.332031 262.367188 C 211.148438 263.550781 209.9375 264.707031 208.699219 265.832031 C 207.457031 266.957031 206.191406 268.050781 204.898438 269.113281 C 203.605469 270.175781 202.285156 271.207031 200.941406 272.203125 C 199.597656 273.203125 198.230469 274.167969 196.839844 275.097656 C 195.445312 276.027344 194.035156 276.921875 192.597656 277.785156 C 191.164062 278.644531 189.707031 279.472656 188.230469 280.261719 C 186.757812 281.050781 185.261719 281.804688 183.75 282.519531 C 182.238281 283.234375 180.707031 283.914062 179.160156 284.554688 C 177.617188 285.195312 176.054688 285.800781 174.480469 286.363281 C 172.902344 286.929688 171.316406 287.453125 169.714844 287.9375 C 168.113281 288.425781 166.5 288.871094 164.878906 289.277344 C 163.253906 289.6875 161.621094 290.054688 159.980469 290.378906 C 158.339844 290.707031 156.691406 290.992188 155.035156 291.238281 C 153.382812 291.484375 151.722656 291.691406 150.054688 291.855469 C 148.390625 292.019531 146.722656 292.140625 145.050781 292.222656 C 143.378906 292.304688 141.707031 292.347656 140.035156 292.347656 C 138.363281 292.347656 136.6875 292.304688 135.019531 292.222656 C 133.347656 292.140625 131.679688 292.019531 130.011719 291.855469 C 128.347656 291.691406 126.6875 291.484375 125.03125 291.238281 C 123.378906 290.992188 121.730469 290.707031 120.085938 290.378906 C 118.445312 290.054688 116.816406 289.6875 115.191406 289.277344 C 113.566406 288.871094 111.957031 288.425781 110.355469 287.9375 C 108.753906 287.453125 107.164062 286.929688 105.589844 286.363281 C 104.015625 285.800781 102.453125 285.195312 100.90625 284.554688 C 99.363281 283.914062 97.832031 283.234375 96.320312 282.519531 C 94.808594 281.804688 93.3125 281.050781 91.835938 280.261719 C 90.363281 279.472656 88.90625 278.644531 87.472656 277.785156 C 86.035156 276.921875 84.621094 276.027344 83.230469 275.097656 C 81.839844 274.167969 80.472656 273.203125 79.128906 272.203125 C 77.785156 271.207031 76.464844 270.175781 75.171875 269.113281 C 73.878906 268.050781 72.613281 266.957031 71.371094 265.832031 C 70.132812 264.707031 68.921875 263.550781 67.738281 262.367188 C 66.554688 261.183594 65.402344 259.972656 64.277344 258.730469 C 63.152344 257.488281 62.0625 256.21875 61 254.925781 C 59.9375 253.628906 58.910156 252.308594 57.910156 250.964844 C 56.914062 249.621094 55.953125 248.25 55.023438 246.859375 C 54.09375 245.464844 53.199219 244.050781 52.335938 242.613281 C 51.476562 241.175781 50.652344 239.71875 49.863281 238.242188 C 49.074219 236.765625 48.324219 235.269531 47.605469 233.753906 C 46.890625 232.242188 46.214844 230.710938 45.574219 229.164062 C 44.933594 227.613281 44.332031 226.050781 43.765625 224.476562 C 43.203125 222.898438 42.679688 221.308594 42.195312 219.703125 C 41.707031 218.101562 41.261719 216.488281 40.855469 214.863281 C 40.449219 213.238281 40.082031 211.605469 39.753906 209.960938 C 39.429688 208.320312 39.144531 206.667969 38.898438 205.011719 C 38.652344 203.355469 38.445312 201.691406 38.28125 200.027344 C 38.117188 198.359375 37.996094 196.6875 37.914062 195.015625 C 37.832031 193.34375 37.789062 191.667969 37.789062 189.992188 C 37.789062 188.316406 37.832031 186.644531 37.914062 184.972656 C 37.996094 183.296875 38.117188 181.628906 38.28125 179.960938 C 38.445312 178.292969 38.652344 176.632812 38.898438 174.976562 C 39.144531 173.316406 39.429688 171.667969 39.753906 170.023438 C 40.082031 168.382812 40.449219 166.75 40.855469 165.125 C 41.261719 163.5 41.707031 161.882812 42.195312 160.28125 C 42.679688 158.679688 43.203125 157.089844 43.765625 155.511719 C 44.332031 153.933594 44.933594 152.371094 45.574219 150.824219 C 46.214844 149.277344 46.890625 147.746094 47.605469 146.230469 C 48.324219 144.71875 49.074219 143.222656 49.863281 141.742188 C 50.652344 140.265625 51.476562 138.808594 52.335938 137.371094 C 53.199219 135.9375 54.09375 134.519531 55.023438 133.128906 C 55.953125 131.734375 56.914062 130.367188 57.910156 129.019531 C 58.910156 127.675781 59.9375 126.355469 61 125.0625 C 62.0625 123.765625 63.152344 122.496094 64.277344 121.257812 C 65.402344 120.015625 66.554688 118.804688 67.738281 117.617188 C 68.921875 116.433594 70.132812 115.277344 71.371094 114.152344 C 72.613281 113.03125 73.878906 111.933594 75.171875 110.871094 C 76.464844 109.808594 77.785156 108.78125 79.128906 107.78125 C 80.472656 106.785156 81.839844 105.820312 83.230469 104.890625 C 84.621094 103.957031 86.035156 103.0625 87.472656 102.203125 C 88.90625 101.339844 90.363281 100.515625 91.835938 99.726562 C 93.3125 98.9375 94.808594 98.183594 96.320312 97.464844 C 97.832031 96.75 99.363281 96.070312 100.90625 95.429688 C 102.453125 94.789062 104.015625 94.1875 105.589844 93.621094 C 107.164062 93.058594 108.753906 92.535156 110.355469 92.046875 C 111.957031 91.5625 113.566406 91.113281 115.191406 90.707031 C 116.816406 90.300781 118.445312 89.933594 120.085938 89.605469 C 121.730469 89.28125 123.378906 88.992188 125.03125 88.746094 C 126.6875 88.5 128.347656 88.296875 130.011719 88.132812 C 131.679688 87.96875 133.347656 87.84375 135.019531 87.761719 C 136.6875 87.679688 138.363281 87.640625 140.035156 87.640625 C 141.707031 87.640625 143.378906 87.679688 145.050781 87.761719 C 146.722656 87.84375 148.390625 87.96875 150.054688 88.132812 C 151.722656 88.296875 153.382812 88.5 155.035156 88.746094 C 156.691406 88.992188 158.339844 89.28125 159.980469 89.605469 C 161.621094 89.933594 163.253906 90.300781 164.878906 90.707031 C 166.5 91.113281 168.113281 91.5625 169.714844 92.046875 C 171.316406 92.535156 172.902344 93.058594 174.480469 93.621094 C 176.054688 94.1875 177.617188 94.789062 179.160156 95.429688 C 180.707031 96.070312 182.238281 96.75 183.75 97.464844 C 185.261719 98.183594 186.757812 98.9375 188.230469 99.726562 C 189.707031 100.515625 191.164062 101.339844 192.597656 102.203125 C 194.035156 103.0625 195.445312 103.957031 196.839844 104.890625 C 198.230469 105.820312 199.597656 106.785156 200.941406 107.78125 C 202.285156 108.78125 203.605469 109.808594 204.898438 110.871094 C 206.191406 111.933594 207.457031 113.03125 208.699219 114.152344 C 209.9375 115.277344 211.148438 116.433594 212.332031 117.617188 C 213.515625 118.804688 214.667969 120.015625 215.792969 121.257812 C 216.917969 122.496094 218.007812 123.765625 219.070312 125.0625 C 220.132812 126.355469 221.160156 127.675781 222.15625 129.019531 C 223.15625 130.367188 224.117188 131.734375 225.046875 133.128906 C 225.976562 134.519531 226.871094 135.9375 227.730469 137.371094 C 228.59375 138.808594 229.417969 140.265625 230.207031 141.742188 C 230.996094 143.222656 231.746094 144.71875 232.460938 146.230469 C 233.175781 147.746094 233.855469 149.277344 234.496094 150.824219 C 235.136719 152.371094 235.738281 153.933594 236.300781 155.511719 C 236.867188 157.089844 237.390625 158.679688 237.875 160.28125 C 238.363281 161.882812 238.808594 163.5 239.214844 165.125 C 239.621094 166.75 239.988281 168.382812 240.3125 170.023438 C 240.640625 171.667969 240.925781 173.316406 241.171875 174.976562 C 241.417969 176.632812 241.621094 178.292969 241.785156 179.960938 C 241.949219 181.628906 242.074219 183.296875 242.15625 184.972656 C 242.238281 186.644531 242.277344 188.316406 242.277344 189.992188 Z M 242.277344 189.992188 " fill-opacity="1" fill-rule="nonzero"/><path fill="#ffffff" d="M 242.277344 189.992188 C 242.277344 191.667969 242.238281 193.34375 242.15625 195.015625 C 242.074219 196.6875 241.949219 198.359375 241.785156 200.027344 C 241.621094 201.691406 241.417969 203.355469 241.171875 205.011719 C 240.925781 206.667969 240.640625 208.320312 240.3125 209.960938 C 239.988281 211.605469 239.621094 213.238281 239.214844 214.863281 C 238.808594 216.488281 238.363281 218.101562 237.875 219.703125 C 237.390625 221.308594 236.867188 222.898438 236.300781 224.476562 C 235.738281 226.050781 235.136719 227.613281 234.496094 229.164062 C 233.855469 230.710938 233.175781 232.242188 232.460938 233.753906 C 231.746094 235.269531 230.996094 236.765625 230.207031 238.242188 C 229.417969 239.71875 228.59375 241.175781 227.730469 242.613281 C 226.871094 244.050781 225.976562 245.464844 225.046875 246.859375 C 224.117188 248.25 223.15625 249.621094 222.15625 250.964844 C 221.160156 252.308594 220.132812 253.628906 219.070312 254.925781 C 218.007812 256.21875 216.917969 257.488281 215.792969 258.730469 C 214.667969 259.972656 213.515625 261.183594 212.332031 262.367188 C 211.148438 263.550781 209.9375 264.707031 208.699219 265.832031 C 207.457031 266.957031 206.191406 268.050781 204.898438 269.113281 C 203.605469 270.175781 202.285156 271.207031 200.941406 272.203125 C 199.597656 273.203125 198.230469 274.167969 196.839844 275.097656 C 195.445312 276.027344 194.035156 276.921875 192.597656 277.785156 C 191.164062 278.644531 189.707031 279.472656 188.230469 280.261719 C 186.757812 281.050781 185.261719 281.804688 183.75 282.519531 C 182.238281 283.234375 180.707031 283.914062 179.160156 284.554688 C 177.617188 285.195312 176.054688 285.800781 174.480469 286.363281 C 172.902344 286.929688 171.316406 287.453125 169.714844 287.9375 C 168.113281 288.425781 166.5 288.871094 164.878906 289.277344 C 163.253906 289.6875 161.621094 290.054688 159.980469 290.378906 C 158.339844 290.707031 156.691406 290.992188 155.035156 291.238281 C 153.382812 291.484375 151.722656 291.691406 150.054688 291.855469 C 148.390625 292.019531 146.722656 292.140625 145.050781 292.222656 C 143.378906 292.304688 141.707031 292.347656 140.035156 292.347656 C 138.363281 292.347656 136.6875 292.304688 135.019531 292.222656 C 133.347656 292.140625 131.679688 292.019531 130.011719 291.855469 C 128.347656 291.691406 126.6875 291.484375 125.03125 291.238281 C 123.378906 290.992188 121.730469 290.707031 120.085938 290.378906 C 118.445312 290.054688 116.816406 289.6875 115.191406 289.277344 C 113.566406 288.871094 111.957031 288.425781 110.355469 287.9375 C 108.753906 287.453125 107.164062 286.929688 105.589844 286.363281 C 104.015625 285.800781 102.453125 285.195312 100.90625 284.554688 C 99.363281 283.914062 97.832031 283.234375 96.320312 282.519531 C 94.808594 281.804688 93.3125 281.050781 91.835938 280.261719 C 90.363281 279.472656 88.90625 278.644531 87.472656 277.785156 C 86.035156 276.921875 84.621094 276.027344 83.230469 275.097656 C 81.839844 274.167969 80.472656 273.203125 79.128906 272.203125 C 77.785156 271.207031 76.464844 270.175781 75.171875 269.113281 C 73.878906 268.050781 72.613281 266.957031 71.371094 265.832031 C 70.132812 264.707031 68.921875 263.550781 67.738281 262.367188 C 66.554688 261.183594 65.402344 259.972656 64.277344 258.730469 C 63.152344 257.488281 62.0625 256.21875 61 254.925781 C 59.9375 253.628906 58.910156 252.308594 57.910156 250.964844 C 56.914062 249.621094 55.953125 248.25 55.023438 246.859375 C 54.09375 245.464844 53.199219 244.050781 52.335938 242.613281 C 51.476562 241.175781 50.652344 239.71875 49.863281 238.242188 C 49.074219 236.765625 48.324219 235.269531 47.605469 233.753906 C 46.890625 232.242188 46.214844 230.710938 45.574219 229.164062 C 44.933594 227.613281 44.332031 226.050781 43.765625 224.476562 C 43.203125 222.898438 42.679688 221.308594 42.195312 219.703125 C 41.707031 218.101562 41.261719 216.488281 40.855469 214.863281 C 40.449219 213.238281 40.082031 211.605469 39.753906 209.960938 C 39.429688 208.320312 39.144531 206.667969 38.898438 205.011719 C 38.652344 203.355469 38.445312 201.691406 38.28125 200.027344 C 38.117188 198.359375 37.996094 196.6875 37.914062 195.015625 C 37.832031 193.34375 37.789062 191.667969 37.789062 189.992188 C 37.789062 188.316406 37.832031 186.644531 37.914062 184.972656 C 37.996094 183.296875 38.117188 181.628906 38.28125 179.960938 C 38.445312 178.292969 38.652344 176.632812 38.898438 174.976562 C 39.144531 173.316406 39.429688 171.667969 39.753906 170.023438 C 40.082031 168.382812 40.449219 166.75 40.855469 165.125 C 41.261719 163.5 41.707031 161.882812 42.195312 160.28125 C 42.679688 158.679688 43.203125 157.089844 43.765625 155.511719 C 44.332031 153.933594 44.933594 152.371094 45.574219 150.824219 C 46.214844 149.277344 46.890625 147.746094 47.605469 146.230469 C 48.324219 144.71875 49.074219 143.222656 49.863281 141.742188 C 50.652344 140.265625 51.476562 138.808594 52.335938 137.371094 C 53.199219 135.9375 54.09375 134.519531 55.023438 133.128906 C 55.953125 131.734375 56.914062 130.367188 57.910156 129.019531 C 58.910156 127.675781 59.9375 126.355469 61 125.0625 C 62.0625 123.765625 63.152344 122.496094 64.277344 121.257812 C 65.402344 120.015625 66.554688 118.804688 67.738281 117.617188 C 68.921875 116.433594 70.132812 115.277344 71.371094 114.152344 C 72.613281 113.03125 73.878906 111.933594 75.171875 110.871094 C 76.464844 109.808594 77.785156 108.78125 79.128906 107.78125 C 80.472656 106.785156 81.839844 105.820312 83.230469 104.890625 C 84.621094 103.957031 86.035156 103.0625 87.472656 102.203125 C 88.90625 101.339844 90.363281 100.515625 91.835938 99.726562 C 93.3125 98.9375 94.808594 98.183594 96.320312 97.464844 C 97.832031 96.75 99.363281 96.070312 100.90625 95.429688 C 102.453125 94.789062 104.015625 94.1875 105.589844 93.621094 C 107.164062 93.058594 108.753906 92.535156 110.355469 92.046875 C 111.957031 91.5625 113.566406 91.113281 115.191406 90.707031 C 116.816406 90.300781 118.445312 89.933594 120.085938 89.605469 C 121.730469 89.28125 123.378906 88.992188 125.03125 88.746094 C 126.6875 88.5 128.347656 88.296875 130.011719 88.132812 C 131.679688 87.96875 133.347656 87.84375 135.019531 87.761719 C 136.6875 87.679688 138.363281 87.640625 140.035156 87.640625 C 141.707031 87.640625 143.378906 87.679688 145.050781 87.761719 C 146.722656 87.84375 148.390625 87.96875 150.054688 88.132812 C 151.722656 88.296875 153.382812 88.5 155.035156 88.746094 C 156.691406 88.992188 158.339844 89.28125 159.980469 89.605469 C 161.621094 89.933594 163.253906 90.300781 164.878906 90.707031 C 166.5 91.113281 168.113281 91.5625 169.714844 92.046875 C 171.316406 92.535156 172.902344 93.058594 174.480469 93.621094 C 176.054688 94.1875 177.617188 94.789062 179.160156 95.429688 C 180.707031 96.070312 182.238281 96.75 183.75 97.464844 C 185.261719 98.183594 186.757812 98.9375 188.230469 99.726562 C 189.707031 100.515625 191.164062 101.339844 192.597656 102.203125 C 194.035156 103.0625 195.445312 103.957031 196.839844 104.890625 C 198.230469 105.820312 199.597656 106.785156 200.941406 107.78125 C 202.285156 108.78125 203.605469 109.808594 204.898438 110.871094 C 206.191406 111.933594 207.457031 113.03125 208.699219 114.152344 C 209.9375 115.277344 211.148438 116.433594 212.332031 117.617188 C 213.515625 118.804688 214.667969 120.015625 215.792969 121.257812 C 216.917969 122.496094 218.007812 123.765625 219.070312 125.0625 C 220.132812 126.355469 221.160156 127.675781 222.15625 129.019531 C 223.15625 130.367188 224.117188 131.734375 225.046875 133.128906 C 225.976562 134.519531 226.871094 135.9375 227.730469 137.371094 C 228.59375 138.808594 229.417969 140.265625 230.207031 141.742188 C 230.996094 143.222656 231.746094 144.71875 232.460938 146.230469 C 233.175781 147.746094 233.855469 149.277344 234.496094 150.824219 C 235.136719 152.371094 235.738281 153.933594 236.300781 155.511719 C 236.867188 157.089844 237.390625 158.679688 237.875 160.28125 C 238.363281 161.882812 238.808594 163.5 239.214844 165.125 C 239.621094 166.75 239.988281 168.382812 240.3125 170.023438 C 240.640625 171.667969 240.925781 173.316406 241.171875 174.976562 C 241.417969 176.632812 241.621094 178.292969 241.785156 179.960938 C 241.949219 181.628906 242.074219 183.296875 242.15625 184.972656 C 242.238281 186.644531 242.277344 188.316406 242.277344 189.992188 Z M 242.277344 189.992188 " fill-opacity="0.4" fill-rule="nonzero"/></g><path fill="#ec6433" d="M 242.277344 189.992188 C 242.277344 151.839844 221.421875 118.5625 190.5 100.960938 C 159.578125 118.5625 138.722656 151.839844 138.722656 189.992188 C 138.722656 228.148438 159.578125 261.421875 190.5 279.023438 C 221.421875 261.421875 242.277344 228.148438 242.277344 189.992188 Z M 242.277344 189.992188 " fill-opacity="0.5" fill-rule="nonzero"/><g transform="matrix(1, 0, 0, 1, 50, 180)"><g clip-path="url(#44938ba180)"><g fill="#ffffff" fill-opacity="1"><g transform="translate(1.156506, 10.960494)"><g><path d="M 8.234375 -7.71875 L 8.234375 0 L 6.09375 0 L 3.171875 -3.515625 L 3.171875 0 L 0.625 0 L 0.625 -7.71875 L 2.765625 -7.71875 L 5.703125 -4.21875 L 5.703125 -7.71875 Z M 8.234375 -7.71875 "/></g></g></g><g fill="#ffffff" fill-opacity="1"><g transform="translate(10.027412, 10.960494)"><g><path d="M 7.296875 -6.03125 L 7.296875 -1.203125 C 7.296875 -0.0546875 6.976562 0.800781 6.34375 1.375 C 5.707031 1.957031 4.800781 2.25 3.625 2.25 C 3.019531 2.25 2.453125 2.179688 1.921875 2.046875 C 1.398438 1.921875 0.957031 1.738281 0.59375 1.5 L 1.4375 -0.203125 C 1.664062 -0.0234375 1.960938 0.113281 2.328125 0.21875 C 2.691406 0.332031 3.035156 0.390625 3.359375 0.390625 C 3.859375 0.390625 4.222656 0.28125 4.453125 0.0625 C 4.679688 -0.144531 4.796875 -0.453125 4.796875 -0.859375 L 4.796875 -0.96875 C 4.421875 -0.539062 3.867188 -0.328125 3.140625 -0.328125 C 2.617188 -0.328125 2.132812 -0.445312 1.6875 -0.6875 C 1.25 -0.925781 0.894531 -1.265625 0.625 -1.703125 C 0.363281 -2.148438 0.234375 -2.664062 0.234375 -3.25 C 0.234375 -3.820312 0.363281 -4.328125 0.625 -4.765625 C 0.894531 -5.203125 1.25 -5.539062 1.6875 -5.78125 C 2.132812 -6.019531 2.617188 -6.140625 3.140625 -6.140625 C 3.960938 -6.140625 4.554688 -5.875 4.921875 -5.34375 L 4.921875 -6.03125 Z M 3.796875 -2.265625 C 4.085938 -2.265625 4.332031 -2.351562 4.53125 -2.53125 C 4.726562 -2.71875 4.828125 -2.957031 4.828125 -3.25 C 4.828125 -3.53125 4.726562 -3.757812 4.53125 -3.9375 C 4.332031 -4.113281 4.085938 -4.203125 3.796875 -4.203125 C 3.492188 -4.203125 3.242188 -4.113281 3.046875 -3.9375 C 2.847656 -3.757812 2.75 -3.53125 2.75 -3.25 C 2.75 -2.957031 2.847656 -2.71875 3.046875 -2.53125 C 3.253906 -2.351562 3.503906 -2.265625 3.796875 -2.265625 Z M 3.796875 -2.265625 "/></g></g></g><g fill="#ffffff" fill-opacity="1"><g transform="translate(17.872204, 10.960494)"><g><path d="M 3.734375 0.109375 C 3.066406 0.109375 2.46875 -0.0195312 1.9375 -0.28125 C 1.40625 -0.550781 0.988281 -0.925781 0.6875 -1.40625 C 0.382812 -1.882812 0.234375 -2.421875 0.234375 -3.015625 C 0.234375 -3.617188 0.382812 -4.15625 0.6875 -4.625 C 0.988281 -5.101562 1.40625 -5.472656 1.9375 -5.734375 C 2.46875 -6.003906 3.066406 -6.140625 3.734375 -6.140625 C 4.410156 -6.140625 5.015625 -6.003906 5.546875 -5.734375 C 6.085938 -5.472656 6.503906 -5.101562 6.796875 -4.625 C 7.097656 -4.15625 7.25 -3.617188 7.25 -3.015625 C 7.25 -2.421875 7.097656 -1.882812 6.796875 -1.40625 C 6.503906 -0.925781 6.085938 -0.550781 5.546875 -0.28125 C 5.015625 -0.0195312 4.410156 0.109375 3.734375 0.109375 Z M 3.734375 -1.828125 C 4.023438 -1.828125 4.257812 -1.929688 4.4375 -2.140625 C 4.625 -2.347656 4.71875 -2.640625 4.71875 -3.015625 C 4.71875 -3.390625 4.625 -3.679688 4.4375 -3.890625 C 4.257812 -4.097656 4.023438 -4.203125 3.734375 -4.203125 C 3.453125 -4.203125 3.21875 -4.097656 3.03125 -3.890625 C 2.84375 -3.679688 2.75 -3.390625 2.75 -3.015625 C 2.75 -2.640625 2.84375 -2.347656 3.03125 -2.140625 C 3.21875 -1.929688 3.453125 -1.828125 3.734375 -1.828125 Z M 4.640625 -6.703125 L 3.703125 -7.546875 L 2.78125 -6.703125 L 1.234375 -6.703125 L 2.640625 -8.453125 L 4.765625 -8.453125 L 6.171875 -6.703125 Z M 4.640625 -6.703125 "/></g></g></g><g fill="#ffffff" fill-opacity="1"><g transform="translate(25.352891, 10.960494)"><g><path d="M 4.75 -6.140625 C 5.488281 -6.140625 6.082031 -5.914062 6.53125 -5.46875 C 6.988281 -5.019531 7.21875 -4.34375 7.21875 -3.4375 L 7.21875 0 L 4.71875 0 L 4.71875 -3.015625 C 4.71875 -3.703125 4.472656 -4.046875 3.984375 -4.046875 C 3.703125 -4.046875 3.472656 -3.945312 3.296875 -3.75 C 3.128906 -3.5625 3.046875 -3.253906 3.046875 -2.828125 L 3.046875 0 L 0.546875 0 L 0.546875 -6.03125 L 2.921875 -6.03125 L 2.921875 -5.4375 C 3.160156 -5.675781 3.429688 -5.851562 3.734375 -5.96875 C 4.046875 -6.082031 4.382812 -6.140625 4.75 -6.140625 Z M 4.75 -6.140625 "/></g></g></g><g fill="#ffffff" fill-opacity="1"><g transform="translate(33.09838, 10.960494)"><g/></g></g><g fill="#ffffff" fill-opacity="1"><g transform="translate(36.408419, 10.960494)"><g><path d="M 4.75 -6.140625 C 5.488281 -6.140625 6.082031 -5.914062 6.53125 -5.46875 C 6.988281 -5.019531 7.21875 -4.34375 7.21875 -3.4375 L 7.21875 0 L 4.71875 0 L 4.71875 -3.015625 C 4.71875 -3.703125 4.472656 -4.046875 3.984375 -4.046875 C 3.703125 -4.046875 3.472656 -3.945312 3.296875 -3.75 C 3.128906 -3.5625 3.046875 -3.253906 3.046875 -2.828125 L 3.046875 0 L 0.546875 0 L 0.546875 -6.03125 L 2.921875 -6.03125 L 2.921875 -5.4375 C 3.160156 -5.675781 3.429688 -5.851562 3.734375 -5.96875 C 4.046875 -6.082031 4.382812 -6.140625 4.75 -6.140625 Z M 4.75 -6.140625 "/></g></g></g><g fill="#ffffff" fill-opacity="1"><g transform="translate(44.264243, 10.960494)"><g><path d="M 7.296875 -6.03125 L 7.296875 -1.203125 C 7.296875 -0.0546875 6.976562 0.800781 6.34375 1.375 C 5.707031 1.957031 4.800781 2.25 3.625 2.25 C 3.019531 2.25 2.453125 2.179688 1.921875 2.046875 C 1.398438 1.921875 0.957031 1.738281 0.59375 1.5 L 1.4375 -0.203125 C 1.664062 -0.0234375 1.960938 0.113281 2.328125 0.21875 C 2.691406 0.332031 3.035156 0.390625 3.359375 0.390625 C 3.859375 0.390625 4.222656 0.28125 4.453125 0.0625 C 4.679688 -0.144531 4.796875 -0.453125 4.796875 -0.859375 L 4.796875 -0.96875 C 4.421875 -0.539062 3.867188 -0.328125 3.140625 -0.328125 C 2.617188 -0.328125 2.132812 -0.445312 1.6875 -0.6875 C 1.25 -0.925781 0.894531 -1.265625 0.625 -1.703125 C 0.363281 -2.148438 0.234375 -2.664062 0.234375 -3.25 C 0.234375 -3.820312 0.363281 -4.328125 0.625 -4.765625 C 0.894531 -5.203125 1.25 -5.539062 1.6875 -5.78125 C 2.132812 -6.019531 2.617188 -6.140625 3.140625 -6.140625 C 3.960938 -6.140625 4.554688 -5.875 4.921875 -5.34375 L 4.921875 -6.03125 Z M 3.796875 -2.265625 C 4.085938 -2.265625 4.332031 -2.351562 4.53125 -2.53125 C 4.726562 -2.71875 4.828125 -2.957031 4.828125 -3.25 C 4.828125 -3.53125 4.726562 -3.757812 4.53125 -3.9375 C 4.332031 -4.113281 4.085938 -4.203125 3.796875 -4.203125 C 3.492188 -4.203125 3.242188 -4.113281 3.046875 -3.9375 C 2.847656 -3.757812 2.75 -3.53125 2.75 -3.25 C 2.75 -2.957031 2.847656 -2.71875 3.046875 -2.53125 C 3.253906 -2.351562 3.503906 -2.265625 3.796875 -2.265625 Z M 3.796875 -2.265625 "/></g></g></g><g clip-path="url(#4fbf60ce0e)"><g fill="#ffffff" fill-opacity="1"><g transform="translate(52.109035, 10.960494)"><g><path d="M 7.140625 -6.03125 L 7.140625 0 L 4.78125 0 L 4.78125 -0.578125 C 4.5625 -0.347656 4.300781 -0.175781 4 -0.0625 C 3.707031 0.0507812 3.394531 0.109375 3.0625 0.109375 C 2.300781 0.109375 1.6875 -0.125 1.21875 -0.59375 C 0.757812 -1.0625 0.53125 -1.765625 0.53125 -2.703125 L 0.53125 -6.03125 L 3.015625 -6.03125 L 3.015625 -3.140625 C 3.015625 -2.722656 3.082031 -2.425781 3.21875 -2.25 C 3.351562 -2.070312 3.550781 -1.984375 3.8125 -1.984375 C 4.050781 -1.984375 4.25 -2.078125 4.40625 -2.265625 C 4.570312 -2.460938 4.65625 -2.773438 4.65625 -3.203125 L 4.65625 -6.03125 Z M 5.578125 -6.03125 L 6.015625 -6.03125 C 6.179688 -6.03125 6.320312 -6.09375 6.4375 -6.21875 C 6.5625 -6.34375 6.625 -6.503906 6.625 -6.703125 C 6.625 -6.953125 6.550781 -7.160156 6.40625 -7.328125 L 7.8125 -7.828125 C 8.082031 -7.484375 8.21875 -7.078125 8.21875 -6.609375 C 8.21875 -5.941406 8.015625 -5.425781 7.609375 -5.0625 C 7.210938 -4.695312 6.644531 -4.515625 5.90625 -4.515625 L 5.578125 -4.515625 Z M 4.71875 -6.578125 C 4.507812 -6.578125 4.316406 -6.613281 4.140625 -6.6875 C 3.972656 -6.769531 3.800781 -6.875 3.625 -7 C 3.5 -7.070312 3.394531 -7.128906 3.3125 -7.171875 C 3.238281 -7.210938 3.164062 -7.234375 3.09375 -7.234375 C 2.945312 -7.234375 2.832031 -7.1875 2.75 -7.09375 C 2.664062 -7 2.613281 -6.867188 2.59375 -6.703125 L 1.421875 -6.703125 C 1.429688 -7.285156 1.570312 -7.75 1.84375 -8.09375 C 2.113281 -8.4375 2.476562 -8.609375 2.9375 -8.609375 C 3.144531 -8.609375 3.332031 -8.570312 3.5 -8.5 C 3.675781 -8.425781 3.859375 -8.328125 4.046875 -8.203125 C 4.171875 -8.109375 4.269531 -8.039062 4.34375 -8 C 4.414062 -7.96875 4.492188 -7.953125 4.578125 -7.953125 C 4.710938 -7.953125 4.820312 -8 4.90625 -8.09375 C 5 -8.1875 5.050781 -8.304688 5.0625 -8.453125 L 6.25 -8.453125 C 6.226562 -7.890625 6.082031 -7.4375 5.8125 -7.09375 C 5.550781 -6.75 5.1875 -6.578125 4.71875 -6.578125 Z M 4.71875 -6.578125 "/></g></g></g></g></g></g><g transform="matrix(1, 0, 0, 1, 277, 182)"><g clip-path="url(#b343f15048)"><g fill="#ffffff" fill-opacity="1"><g transform="translate(1.416229, 11.797475)"><g><path d="M 5.703125 0 L 4.328125 -2.140625 L 2.984375 0 L -0.09375 0 L 2.796875 -4.03125 L 0.015625 -7.984375 L 3.03125 -7.984375 L 4.390625 -5.984375 L 5.71875 -7.984375 L 8.609375 -7.984375 L 5.84375 -4.125 L 8.78125 0 Z M 5.703125 0 "/></g></g></g><g fill="#ffffff" fill-opacity="1"><g transform="translate(9.874319, 11.797475)"><g><path d="M 3.359375 -6.359375 C 4.453125 -6.359375 5.285156 -6.109375 5.859375 -5.609375 C 6.441406 -5.117188 6.734375 -4.367188 6.734375 -3.359375 L 6.734375 0 L 4.34375 0 L 4.34375 -0.828125 C 4.050781 -0.203125 3.460938 0.109375 2.578125 0.109375 C 2.085938 0.109375 1.664062 0.0234375 1.3125 -0.140625 C 0.96875 -0.316406 0.707031 -0.550781 0.53125 -0.84375 C 0.351562 -1.132812 0.265625 -1.460938 0.265625 -1.828125 C 0.265625 -2.441406 0.5 -2.90625 0.96875 -3.21875 C 1.4375 -3.539062 2.148438 -3.703125 3.109375 -3.703125 L 4.15625 -3.703125 C 4.070312 -4.191406 3.679688 -4.4375 2.984375 -4.4375 C 2.703125 -4.4375 2.414062 -4.390625 2.125 -4.296875 C 1.832031 -4.210938 1.582031 -4.097656 1.375 -3.953125 L 0.5625 -5.640625 C 0.914062 -5.867188 1.34375 -6.046875 1.84375 -6.171875 C 2.351562 -6.296875 2.859375 -6.359375 3.359375 -6.359375 Z M 3.359375 -1.4375 C 3.535156 -1.4375 3.695312 -1.484375 3.84375 -1.578125 C 3.988281 -1.679688 4.09375 -1.832031 4.15625 -2.03125 L 4.15625 -2.46875 L 3.53125 -2.46875 C 3 -2.46875 2.734375 -2.289062 2.734375 -1.9375 C 2.734375 -1.789062 2.785156 -1.671875 2.890625 -1.578125 C 3.003906 -1.484375 3.160156 -1.4375 3.359375 -1.4375 Z M 4.578125 -6.8125 C 4.359375 -6.8125 4.160156 -6.847656 3.984375 -6.921875 C 3.804688 -6.992188 3.625 -7.097656 3.4375 -7.234375 C 3.3125 -7.316406 3.207031 -7.378906 3.125 -7.421875 C 3.039062 -7.460938 2.960938 -7.484375 2.890625 -7.484375 C 2.742188 -7.484375 2.625 -7.429688 2.53125 -7.328125 C 2.445312 -7.234375 2.394531 -7.097656 2.375 -6.921875 L 1.15625 -6.921875 C 1.175781 -7.535156 1.320312 -8.015625 1.59375 -8.359375 C 1.875 -8.710938 2.253906 -8.890625 2.734375 -8.890625 C 2.953125 -8.890625 3.148438 -8.851562 3.328125 -8.78125 C 3.503906 -8.707031 3.6875 -8.601562 3.875 -8.46875 C 4 -8.382812 4.101562 -8.320312 4.1875 -8.28125 C 4.269531 -8.238281 4.347656 -8.21875 4.421875 -8.21875 C 4.566406 -8.21875 4.679688 -8.265625 4.765625 -8.359375 C 4.859375 -8.460938 4.914062 -8.59375 4.9375 -8.75 L 6.15625 -8.75 C 6.132812 -8.164062 5.984375 -7.695312 5.703125 -7.34375 C 5.429688 -6.988281 5.054688 -6.8125 4.578125 -6.8125 Z M 4.578125 -6.8125 "/></g></g></g><g fill="#ffffff" fill-opacity="1"><g transform="translate(17.15831, 11.797475)"><g/></g></g><g fill="#ffffff" fill-opacity="1"><g transform="translate(20.578023, 11.797475)"><g><path d="M 4.90625 -6.359375 C 5.675781 -6.359375 6.289062 -6.125 6.75 -5.65625 C 7.21875 -5.195312 7.453125 -4.5 7.453125 -3.5625 L 7.453125 0 L 4.875 0 L 4.875 -3.109375 C 4.875 -3.828125 4.625 -4.1875 4.125 -4.1875 C 3.832031 -4.1875 3.59375 -4.082031 3.40625 -3.875 C 3.226562 -3.675781 3.140625 -3.363281 3.140625 -2.9375 L 3.140625 0 L 0.5625 0 L 0.5625 -8.46875 L 3.140625 -8.46875 L 3.140625 -5.734375 C 3.617188 -6.148438 4.207031 -6.359375 4.90625 -6.359375 Z M 4.90625 -6.359375 "/></g></g></g><g fill="#ffffff" fill-opacity="1"><g transform="translate(28.69414, 11.797475)"><g><path d="M 3.859375 0.109375 C 3.171875 0.109375 2.550781 -0.0234375 2 -0.296875 C 1.445312 -0.578125 1.015625 -0.960938 0.703125 -1.453125 C 0.390625 -1.941406 0.234375 -2.5 0.234375 -3.125 C 0.234375 -3.75 0.390625 -4.304688 0.703125 -4.796875 C 1.015625 -5.285156 1.445312 -5.664062 2 -5.9375 C 2.550781 -6.21875 3.171875 -6.359375 3.859375 -6.359375 C 4.566406 -6.359375 5.191406 -6.21875 5.734375 -5.9375 C 6.285156 -5.664062 6.71875 -5.285156 7.03125 -4.796875 C 7.34375 -4.304688 7.5 -3.75 7.5 -3.125 C 7.5 -2.5 7.34375 -1.941406 7.03125 -1.453125 C 6.71875 -0.960938 6.285156 -0.578125 5.734375 -0.296875 C 5.191406 -0.0234375 4.566406 0.109375 3.859375 0.109375 Z M 3.859375 -1.890625 C 4.160156 -1.890625 4.40625 -2 4.59375 -2.21875 C 4.78125 -2.4375 4.875 -2.738281 4.875 -3.125 C 4.875 -3.507812 4.78125 -3.804688 4.59375 -4.015625 C 4.40625 -4.234375 4.160156 -4.34375 3.859375 -4.34375 C 3.566406 -4.34375 3.320312 -4.234375 3.125 -4.015625 C 2.9375 -3.804688 2.84375 -3.507812 2.84375 -3.125 C 2.84375 -2.738281 2.9375 -2.4375 3.125 -2.21875 C 3.320312 -2 3.566406 -1.890625 3.859375 -1.890625 Z M 3.828125 2.578125 C 3.535156 2.578125 3.289062 2.484375 3.09375 2.296875 C 2.894531 2.117188 2.796875 1.878906 2.796875 1.578125 C 2.796875 1.285156 2.894531 1.039062 3.09375 0.84375 C 3.289062 0.65625 3.535156 0.5625 3.828125 0.5625 C 4.117188 0.5625 4.363281 0.65625 4.5625 0.84375 C 4.757812 1.039062 4.859375 1.285156 4.859375 1.578125 C 4.859375 1.878906 4.757812 2.117188 4.5625 2.296875 C 4.363281 2.484375 4.117188 2.578125 3.828125 2.578125 Z M 4.78125 -6.921875 L 3.828125 -7.796875 L 2.875 -6.921875 L 1.265625 -6.921875 L 2.734375 -8.75 L 4.921875 -8.75 L 6.390625 -6.921875 Z M 4.78125 -6.921875 "/></g></g></g><g fill="#ffffff" fill-opacity="1"><g transform="translate(36.422691, 11.797475)"><g><path d="M 0.5625 -6.234375 L 3.140625 -6.234375 L 3.140625 0 L 0.5625 0 Z M 1.859375 -6.734375 C 1.390625 -6.734375 1.015625 -6.859375 0.734375 -7.109375 C 0.453125 -7.359375 0.3125 -7.671875 0.3125 -8.046875 C 0.3125 -8.429688 0.453125 -8.742188 0.734375 -8.984375 C 1.015625 -9.234375 1.390625 -9.359375 1.859375 -9.359375 C 2.328125 -9.359375 2.703125 -9.238281 2.984375 -9 C 3.265625 -8.769531 3.40625 -8.46875 3.40625 -8.09375 C 3.40625 -7.695312 3.265625 -7.367188 2.984375 -7.109375 C 2.703125 -6.859375 2.328125 -6.734375 1.859375 -6.734375 Z M 1.859375 -6.734375 "/></g></g></g></g></g></svg>